<?xml version="1.0" encoding="UTF-8"?>
<svg xmlns="http://www.w3.org/2000/svg" xmlns:xlink="http://www.w3.org/1999/xlink" width="406.666667" height="124" viewBox="0 0 406.666667 124" version="1.1">
<g id="surface1">
<path style="fill:none;stroke-width:1;stroke-linecap:round;stroke-linejoin:miter;stroke:rgb(0%,0%,0%);stroke-opacity:1;stroke-miterlimit:10;" d="M 168.999023 98.449219 L 198.061523 98.449219 " transform="matrix(1.333333,0,0,1.333333,-124,-92)"/>
<path style="fill:none;stroke-width:1;stroke-linecap:butt;stroke-linejoin:miter;stroke:rgb(0%,0%,0%);stroke-opacity:1;stroke-miterlimit:10;" d="M 202.063477 98.449219 L 198.061523 98.449219 M 198.061523 96.949219 L 202.063477 98.449219 L 198.061523 99.949219 " transform="matrix(1.333333,0,0,1.333333,-124,-92)"/>
<path style="fill-rule:nonzero;fill:rgb(100%,100%,100%);fill-opacity:1;stroke-width:1;stroke-linecap:round;stroke-linejoin:round;stroke:rgb(0%,0%,0%);stroke-opacity:1;stroke-miterlimit:10;" d="M 93.667969 129.500977 L 168.667969 129.500977 L 168.667969 161.000977 L 93.667969 161.000977 Z M 93.667969 129.500977 " transform="matrix(1.333333,0,0,1.333333,-124,-92)"/>
<path style=" stroke:none;fill-rule:nonzero;fill:rgb(0%,0%,0%);fill-opacity:1;" d="M 38.667969 105 L 38.667969 96.417969 L 39.792969 96.417969 L 39.792969 105 Z M 38.667969 105 "/>
<path style=" stroke:none;fill-rule:nonzero;fill:rgb(0%,0%,0%);fill-opacity:1;" d="M 41.667969 105 L 41.667969 98.769531 L 42.628906 98.769531 L 42.628906 99.667969 C 43.070312 98.988281 43.730469 98.644531 44.605469 98.644531 C 44.980469 98.644531 45.320312 98.71875 45.628906 98.855469 C 45.945312 98.980469 46.179688 99.15625 46.335938 99.375 C 46.488281 99.582031 46.597656 99.84375 46.667969 100.144531 C 46.710938 100.34375 46.730469 100.683594 46.730469 101.167969 L 46.730469 105 L 45.667969 105 L 45.667969 101.207031 C 45.667969 100.78125 45.628906 100.457031 45.542969 100.25 C 45.460938 100.042969 45.316406 99.875 45.105469 99.75 C 44.898438 99.613281 44.652344 99.542969 44.378906 99.542969 C 43.929688 99.542969 43.542969 99.6875 43.210938 99.980469 C 42.886719 100.261719 42.730469 100.800781 42.730469 101.605469 L 42.730469 105 Z M 41.667969 105 "/>
<path style=" stroke:none;fill-rule:nonzero;fill:rgb(0%,0%,0%);fill-opacity:1;" d="M 48.339844 107.375 L 48.339844 98.769531 L 49.296875 98.769531 L 49.296875 99.582031 C 49.515625 99.265625 49.765625 99.03125 50.046875 98.875 C 50.339844 98.722656 50.691406 98.644531 51.109375 98.644531 C 51.636719 98.644531 52.097656 98.785156 52.503906 99.0625 C 52.90625 99.328125 53.214844 99.707031 53.421875 100.207031 C 53.628906 100.707031 53.734375 101.25 53.734375 101.832031 C 53.734375 102.472656 53.613281 103.050781 53.378906 103.5625 C 53.15625 104.078125 52.828125 104.472656 52.402344 104.75 C 51.96875 105.011719 51.511719 105.144531 51.027344 105.144531 C 50.675781 105.144531 50.363281 105.066406 50.089844 104.917969 C 49.808594 104.765625 49.578125 104.578125 49.402344 104.355469 L 49.402344 107.375 Z M 49.296875 101.917969 C 49.296875 102.722656 49.453125 103.324219 49.777344 103.707031 C 50.109375 104.082031 50.503906 104.269531 50.964844 104.269531 C 51.421875 104.269531 51.816406 104.078125 52.152344 103.6875 C 52.496094 103.285156 52.671875 102.667969 52.671875 101.832031 C 52.671875 101.042969 52.503906 100.453125 52.171875 100.0625 C 51.847656 99.660156 51.464844 99.457031 51.003906 99.457031 C 50.558594 99.457031 50.160156 99.675781 49.816406 100.105469 C 49.46875 100.519531 49.296875 101.125 49.296875 101.917969 Z M 49.296875 101.917969 "/>
<path style=" stroke:none;fill-rule:nonzero;fill:rgb(0%,0%,0%);fill-opacity:1;" d="M 59.09375 105 L 59.09375 104.082031 C 58.601562 104.792969 57.945312 105.144531 57.113281 105.144531 C 56.75 105.144531 56.410156 105.074219 56.09375 104.9375 C 55.769531 104.785156 55.53125 104.605469 55.363281 104.394531 C 55.207031 104.1875 55.101562 103.933594 55.050781 103.625 C 55.007812 103.417969 54.988281 103.082031 54.988281 102.625 L 54.988281 98.769531 L 56.03125 98.769531 L 56.03125 102.230469 C 56.03125 102.785156 56.054688 103.15625 56.113281 103.332031 C 56.164062 103.613281 56.300781 103.832031 56.507812 104 C 56.726562 104.15625 57 104.230469 57.320312 104.230469 C 57.640625 104.230469 57.9375 104.15625 58.21875 104 C 58.492188 103.832031 58.6875 103.613281 58.800781 103.332031 C 58.910156 103.058594 58.96875 102.644531 58.96875 102.105469 L 58.96875 98.769531 L 60.03125 98.769531 L 60.03125 105 Z M 59.09375 105 "/>
<path style=" stroke:none;fill-rule:nonzero;fill:rgb(0%,0%,0%);fill-opacity:1;" d="M 63.992188 104.0625 L 64.136719 104.980469 C 63.828125 105.046875 63.5625 105.082031 63.34375 105.082031 C 62.953125 105.082031 62.65625 105.019531 62.449219 104.894531 C 62.242188 104.769531 62.085938 104.613281 61.992188 104.417969 C 61.90625 104.222656 61.867188 103.8125 61.867188 103.1875 L 61.867188 99.605469 L 61.09375 99.605469 L 61.09375 98.769531 L 61.867188 98.769531 L 61.867188 97.230469 L 62.929688 96.605469 L 62.929688 98.769531 L 63.992188 98.769531 L 63.992188 99.605469 L 62.929688 99.605469 L 62.929688 103.230469 C 62.929688 103.535156 62.9375 103.730469 62.96875 103.8125 C 63.011719 103.894531 63.074219 103.96875 63.15625 104.019531 C 63.242188 104.078125 63.355469 104.105469 63.511719 104.105469 C 63.636719 104.105469 63.792969 104.09375 63.992188 104.0625 Z M 63.992188 104.0625 "/>
<path style="fill-rule:nonzero;fill:rgb(100%,100%,100%);fill-opacity:1;stroke-width:1;stroke-linecap:round;stroke-linejoin:round;stroke:rgb(0%,0%,0%);stroke-opacity:1;stroke-miterlimit:10;" d="M 106.625977 70.699219 L 181.625977 70.699219 L 181.625977 102.199219 L 106.625977 102.199219 Z M 106.625977 70.699219 " transform="matrix(1.333333,0,0,1.333333,-124,-92)"/>
<path style="fill-rule:nonzero;fill:rgb(100%,100%,100%);fill-opacity:1;stroke-width:1;stroke-linecap:round;stroke-linejoin:round;stroke:rgb(0%,0%,0%);stroke-opacity:1;stroke-miterlimit:10;" d="M 101.000977 76.699219 L 176.000977 76.699219 L 176.000977 108.199219 L 101.000977 108.199219 Z M 101.000977 76.699219 " transform="matrix(1.333333,0,0,1.333333,-124,-92)"/>
<path style="fill-rule:nonzero;fill:rgb(100%,100%,100%);fill-opacity:1;stroke-width:1;stroke-linecap:round;stroke-linejoin:round;stroke:rgb(0%,0%,0%);stroke-opacity:1;stroke-miterlimit:10;" d="M 93.999023 82.699219 L 168.999023 82.699219 L 168.999023 114.199219 L 93.999023 114.199219 Z M 93.999023 82.699219 " transform="matrix(1.333333,0,0,1.333333,-124,-92)"/>
<path style=" stroke:none;fill-rule:nonzero;fill:rgb(0%,0%,0%);fill-opacity:1;" d="M 15.304688 42.601562 L 15.304688 35.015625 L 12.492188 35.015625 L 12.492188 34.015625 L 19.285156 34.015625 L 19.285156 35.015625 L 16.453125 35.015625 L 16.453125 42.601562 Z M 15.304688 42.601562 "/>
<path style=" stroke:none;fill-rule:nonzero;fill:rgb(0%,0%,0%);fill-opacity:1;" d="M 19.855469 42.601562 L 19.855469 36.371094 L 20.816406 36.371094 L 20.816406 37.328125 C 21.050781 36.886719 21.273438 36.59375 21.480469 36.453125 C 21.691406 36.320312 21.917969 36.246094 22.167969 36.246094 C 22.511719 36.246094 22.878906 36.359375 23.253906 36.578125 L 22.878906 37.558594 C 22.628906 37.40625 22.367188 37.328125 22.105469 37.328125 C 21.882812 37.328125 21.675781 37.402344 21.480469 37.539062 C 21.300781 37.679688 21.167969 37.871094 21.085938 38.121094 C 20.972656 38.496094 20.917969 38.90625 20.917969 39.351562 L 20.917969 42.601562 Z M 19.855469 42.601562 "/>
<path style=" stroke:none;fill-rule:nonzero;fill:rgb(0%,0%,0%);fill-opacity:1;" d="M 27.9375 41.828125 C 27.546875 42.164062 27.171875 42.402344 26.8125 42.539062 C 26.445312 42.671875 26.0625 42.746094 25.644531 42.746094 C 24.960938 42.746094 24.4375 42.578125 24.0625 42.246094 C 23.695312 41.914062 23.519531 41.484375 23.519531 40.953125 C 23.519531 40.652344 23.585938 40.371094 23.726562 40.121094 C 23.863281 39.871094 24.046875 39.671875 24.269531 39.515625 C 24.488281 39.367188 24.738281 39.246094 25.019531 39.164062 C 25.226562 39.121094 25.539062 39.074219 25.957031 39.015625 C 26.816406 38.921875 27.445312 38.796875 27.851562 38.640625 C 27.851562 38.507812 27.851562 38.414062 27.851562 38.371094 C 27.851562 37.945312 27.753906 37.640625 27.5625 37.476562 C 27.28125 37.226562 26.878906 37.101562 26.351562 37.101562 C 25.851562 37.101562 25.484375 37.195312 25.25 37.371094 C 25.007812 37.539062 24.835938 37.84375 24.726562 38.289062 L 23.707031 38.164062 C 23.789062 37.71875 23.9375 37.367188 24.144531 37.101562 C 24.363281 36.824219 24.675781 36.617188 25.082031 36.476562 C 25.5 36.324219 25.96875 36.246094 26.5 36.246094 C 27.039062 36.246094 27.46875 36.308594 27.789062 36.433594 C 28.125 36.558594 28.363281 36.71875 28.519531 36.914062 C 28.6875 37.09375 28.796875 37.328125 28.851562 37.621094 C 28.894531 37.804688 28.914062 38.121094 28.914062 38.578125 L 28.914062 39.996094 C 28.914062 40.96875 28.9375 41.589844 28.976562 41.851562 C 29.019531 42.117188 29.109375 42.367188 29.25 42.601562 L 28.144531 42.601562 C 28.03125 42.382812 27.960938 42.121094 27.9375 41.828125 Z M 27.851562 39.476562 C 27.460938 39.632812 26.882812 39.761719 26.125 39.871094 C 25.691406 39.945312 25.382812 40.015625 25.207031 40.101562 C 25.023438 40.171875 24.882812 40.28125 24.789062 40.433594 C 24.691406 40.589844 24.644531 40.757812 24.644531 40.933594 C 24.644531 41.214844 24.75 41.449219 24.957031 41.640625 C 25.164062 41.824219 25.476562 41.914062 25.894531 41.914062 C 26.296875 41.914062 26.65625 41.824219 26.976562 41.640625 C 27.296875 41.464844 27.53125 41.21875 27.6875 40.914062 C 27.796875 40.679688 27.851562 40.328125 27.851562 39.871094 Z M 27.851562 39.476562 "/>
<path style=" stroke:none;fill-rule:nonzero;fill:rgb(0%,0%,0%);fill-opacity:1;" d="M 30.546875 35.226562 L 30.546875 34.015625 L 31.609375 34.015625 L 31.609375 35.226562 Z M 30.546875 42.601562 L 30.546875 36.371094 L 31.609375 36.371094 L 31.609375 42.601562 Z M 30.546875 42.601562 "/>
<path style=" stroke:none;fill-rule:nonzero;fill:rgb(0%,0%,0%);fill-opacity:1;" d="M 33.214844 42.601562 L 33.214844 36.371094 L 34.171875 36.371094 L 34.171875 37.265625 C 34.617188 36.589844 35.277344 36.246094 36.152344 36.246094 C 36.527344 36.246094 36.867188 36.320312 37.171875 36.453125 C 37.492188 36.578125 37.726562 36.757812 37.882812 36.976562 C 38.03125 37.183594 38.140625 37.445312 38.214844 37.746094 C 38.257812 37.945312 38.277344 38.28125 38.277344 38.765625 L 38.277344 42.601562 L 37.214844 42.601562 L 37.214844 38.808594 C 37.214844 38.382812 37.171875 38.058594 37.089844 37.851562 C 37.007812 37.640625 36.859375 37.476562 36.652344 37.351562 C 36.445312 37.214844 36.199219 37.140625 35.921875 37.140625 C 35.476562 37.140625 35.089844 37.289062 34.757812 37.578125 C 34.433594 37.859375 34.277344 38.402344 34.277344 39.203125 L 34.277344 42.601562 Z M 33.214844 42.601562 "/>
<path style=" stroke:none;fill-rule:nonzero;fill:rgb(0%,0%,0%);fill-opacity:1;" d="M 39.890625 35.226562 L 39.890625 34.015625 L 40.953125 34.015625 L 40.953125 35.226562 Z M 39.890625 42.601562 L 39.890625 36.371094 L 40.953125 36.371094 L 40.953125 42.601562 Z M 39.890625 42.601562 "/>
<path style=" stroke:none;fill-rule:nonzero;fill:rgb(0%,0%,0%);fill-opacity:1;" d="M 42.554688 42.601562 L 42.554688 36.371094 L 43.511719 36.371094 L 43.511719 37.265625 C 43.957031 36.589844 44.617188 36.246094 45.492188 36.246094 C 45.867188 36.246094 46.207031 36.320312 46.511719 36.453125 C 46.832031 36.578125 47.066406 36.757812 47.222656 36.976562 C 47.371094 37.183594 47.480469 37.445312 47.554688 37.746094 C 47.597656 37.945312 47.617188 38.28125 47.617188 38.765625 L 47.617188 42.601562 L 46.554688 42.601562 L 46.554688 38.808594 C 46.554688 38.382812 46.511719 38.058594 46.429688 37.851562 C 46.347656 37.640625 46.199219 37.476562 45.992188 37.351562 C 45.785156 37.214844 45.539062 37.140625 45.261719 37.140625 C 44.816406 37.140625 44.429688 37.289062 44.097656 37.578125 C 43.773438 37.859375 43.617188 38.402344 43.617188 39.203125 L 43.617188 42.601562 Z M 42.554688 42.601562 "/>
<path style=" stroke:none;fill-rule:nonzero;fill:rgb(0%,0%,0%);fill-opacity:1;" d="M 49.042969 43.121094 L 50.0625 43.265625 C 50.105469 43.585938 50.21875 43.8125 50.417969 43.953125 C 50.675781 44.148438 51.042969 44.246094 51.5 44.246094 C 51.984375 44.246094 52.359375 44.148438 52.625 43.953125 C 52.886719 43.757812 53.066406 43.484375 53.167969 43.140625 C 53.21875 42.917969 53.238281 42.46875 53.230469 41.789062 C 52.769531 42.328125 52.199219 42.601562 51.519531 42.601562 C 50.65625 42.601562 49.988281 42.296875 49.519531 41.683594 C 49.0625 41.058594 48.832031 40.320312 48.832031 39.453125 C 48.832031 38.859375 48.9375 38.308594 49.144531 37.808594 C 49.363281 37.308594 49.675781 36.929688 50.082031 36.664062 C 50.484375 36.386719 50.964844 36.246094 51.519531 36.246094 C 52.253906 36.246094 52.859375 36.539062 53.332031 37.121094 L 53.332031 36.371094 L 54.3125 36.371094 L 54.3125 41.746094 C 54.3125 42.714844 54.207031 43.402344 54 43.808594 C 53.800781 44.210938 53.488281 44.527344 53.0625 44.765625 C 52.644531 45 52.125 45.121094 51.5 45.121094 C 50.75 45.121094 50.144531 44.953125 49.6875 44.621094 C 49.238281 44.289062 49.027344 43.789062 49.042969 43.121094 Z M 49.917969 39.371094 C 49.917969 40.195312 50.074219 40.789062 50.394531 41.164062 C 50.714844 41.539062 51.113281 41.726562 51.605469 41.726562 C 52.089844 41.726562 52.5 41.539062 52.832031 41.164062 C 53.167969 40.789062 53.332031 40.203125 53.332031 39.414062 C 53.332031 38.652344 53.15625 38.074219 52.8125 37.683594 C 52.480469 37.296875 52.074219 37.101562 51.605469 37.101562 C 51.128906 37.101562 50.730469 37.296875 50.394531 37.683594 C 50.074219 38.058594 49.917969 38.621094 49.917969 39.371094 Z M 49.917969 39.371094 "/>
<path style=" stroke:none;fill-rule:nonzero;fill:rgb(0%,0%,0%);fill-opacity:1;" d="M 59.238281 35.226562 L 59.238281 34.015625 L 60.300781 34.015625 L 60.300781 35.226562 Z M 59.238281 42.601562 L 59.238281 36.371094 L 60.300781 36.371094 L 60.300781 42.601562 Z M 59.238281 42.601562 "/>
<path style=" stroke:none;fill-rule:nonzero;fill:rgb(0%,0%,0%);fill-opacity:1;" d="M 61.902344 42.601562 L 61.902344 36.371094 L 62.863281 36.371094 L 62.863281 37.265625 C 63.304688 36.589844 63.964844 36.246094 64.839844 36.246094 C 65.214844 36.246094 65.554688 36.320312 65.863281 36.453125 C 66.179688 36.578125 66.414062 36.757812 66.570312 36.976562 C 66.722656 37.183594 66.832031 37.445312 66.902344 37.746094 C 66.945312 37.945312 66.964844 38.28125 66.964844 38.765625 L 66.964844 42.601562 L 65.902344 42.601562 L 65.902344 38.808594 C 65.902344 38.382812 65.863281 38.058594 65.777344 37.851562 C 65.695312 37.640625 65.550781 37.476562 65.339844 37.351562 C 65.132812 37.214844 64.886719 37.140625 64.613281 37.140625 C 64.164062 37.140625 63.777344 37.289062 63.445312 37.578125 C 63.121094 37.859375 62.964844 38.402344 62.964844 39.203125 L 62.964844 42.601562 Z M 61.902344 42.601562 "/>
<path style=" stroke:none;fill-rule:nonzero;fill:rgb(0%,0%,0%);fill-opacity:1;" d="M 68.578125 44.976562 L 68.578125 36.371094 L 69.535156 36.371094 L 69.535156 37.183594 C 69.753906 36.867188 70.003906 36.632812 70.285156 36.476562 C 70.578125 36.324219 70.933594 36.246094 71.347656 36.246094 C 71.875 36.246094 72.339844 36.386719 72.746094 36.664062 C 73.144531 36.929688 73.453125 37.308594 73.660156 37.808594 C 73.871094 38.308594 73.972656 38.851562 73.972656 39.433594 C 73.972656 40.074219 73.855469 40.652344 73.621094 41.164062 C 73.394531 41.679688 73.066406 42.074219 72.640625 42.351562 C 72.207031 42.609375 71.75 42.746094 71.265625 42.746094 C 70.917969 42.746094 70.605469 42.667969 70.328125 42.515625 C 70.046875 42.367188 69.816406 42.179688 69.640625 41.953125 L 69.640625 44.976562 Z M 69.535156 39.515625 C 69.535156 40.324219 69.691406 40.921875 70.015625 41.308594 C 70.347656 41.683594 70.746094 41.871094 71.203125 41.871094 C 71.660156 41.871094 72.058594 41.679688 72.390625 41.289062 C 72.734375 40.886719 72.910156 40.265625 72.910156 39.433594 C 72.910156 38.640625 72.746094 38.054688 72.410156 37.664062 C 72.089844 37.261719 71.703125 37.058594 71.246094 37.058594 C 70.796875 37.058594 70.402344 37.277344 70.058594 37.703125 C 69.707031 38.121094 69.535156 38.726562 69.535156 39.515625 Z M 69.535156 39.515625 "/>
<path style=" stroke:none;fill-rule:nonzero;fill:rgb(0%,0%,0%);fill-opacity:1;" d="M 79.335938 42.601562 L 79.335938 41.683594 C 78.847656 42.390625 78.191406 42.746094 77.355469 42.746094 C 76.992188 42.746094 76.652344 42.671875 76.335938 42.539062 C 76.011719 42.386719 75.773438 42.203125 75.605469 41.996094 C 75.449219 41.789062 75.347656 41.53125 75.292969 41.226562 C 75.253906 41.015625 75.230469 40.683594 75.230469 40.226562 L 75.230469 36.371094 L 76.273438 36.371094 L 76.273438 39.828125 C 76.273438 40.386719 76.300781 40.757812 76.355469 40.933594 C 76.410156 41.214844 76.542969 41.433594 76.753906 41.601562 C 76.972656 41.757812 77.242188 41.828125 77.566406 41.828125 C 77.882812 41.828125 78.179688 41.757812 78.460938 41.601562 C 78.738281 41.433594 78.929688 41.214844 79.042969 40.933594 C 79.152344 40.65625 79.210938 40.246094 79.210938 39.703125 L 79.210938 36.371094 L 80.273438 36.371094 L 80.273438 42.601562 Z M 79.335938 42.601562 "/>
<path style=" stroke:none;fill-rule:nonzero;fill:rgb(0%,0%,0%);fill-opacity:1;" d="M 84.238281 41.664062 L 84.386719 42.578125 C 84.078125 42.648438 83.8125 42.683594 83.59375 42.683594 C 83.203125 42.683594 82.90625 42.621094 82.699219 42.496094 C 82.488281 42.371094 82.332031 42.214844 82.238281 42.015625 C 82.15625 41.824219 82.113281 41.414062 82.113281 40.789062 L 82.113281 37.203125 L 81.34375 37.203125 L 81.34375 36.371094 L 82.113281 36.371094 L 82.113281 34.828125 L 83.175781 34.203125 L 83.175781 36.371094 L 84.238281 36.371094 L 84.238281 37.203125 L 83.175781 37.203125 L 83.175781 40.828125 C 83.175781 41.136719 83.1875 41.328125 83.21875 41.414062 C 83.261719 41.496094 83.324219 41.570312 83.40625 41.621094 C 83.488281 41.679688 83.605469 41.703125 83.761719 41.703125 C 83.886719 41.703125 84.042969 41.695312 84.238281 41.664062 Z M 84.238281 41.664062 "/>
<path style=" stroke:none;fill-rule:nonzero;fill:rgb(0%,0%,0%);fill-opacity:1;" d="M 84.84375 40.746094 L 85.886719 40.578125 C 85.9375 40.996094 86.097656 41.320312 86.363281 41.539062 C 86.640625 41.761719 87.015625 41.871094 87.488281 41.871094 C 87.972656 41.871094 88.332031 41.777344 88.574219 41.578125 C 88.808594 41.386719 88.925781 41.15625 88.925781 40.890625 C 88.925781 40.640625 88.824219 40.453125 88.613281 40.328125 C 88.457031 40.234375 88.097656 40.109375 87.53125 39.953125 C 86.75 39.761719 86.207031 39.59375 85.90625 39.453125 C 85.613281 39.320312 85.390625 39.121094 85.238281 38.871094 C 85.082031 38.621094 85.011719 38.34375 85.011719 38.039062 C 85.011719 37.761719 85.074219 37.507812 85.199219 37.265625 C 85.324219 37.03125 85.496094 36.828125 85.71875 36.664062 C 85.886719 36.554688 86.105469 36.453125 86.386719 36.371094 C 86.675781 36.289062 86.980469 36.246094 87.300781 36.246094 C 87.785156 36.246094 88.207031 36.320312 88.574219 36.453125 C 88.949219 36.59375 89.222656 36.78125 89.40625 37.015625 C 89.582031 37.257812 89.707031 37.574219 89.78125 37.976562 L 88.738281 38.121094 C 88.699219 37.804688 88.558594 37.554688 88.324219 37.371094 C 88.097656 37.195312 87.785156 37.101562 87.386719 37.101562 C 86.894531 37.101562 86.550781 37.183594 86.34375 37.351562 C 86.136719 37.507812 86.03125 37.695312 86.03125 37.914062 C 86.03125 38.054688 86.074219 38.171875 86.15625 38.265625 C 86.238281 38.390625 86.375 38.492188 86.574219 38.558594 C 86.667969 38.601562 86.972656 38.695312 87.488281 38.828125 C 88.238281 39.027344 88.761719 39.183594 89.050781 39.308594 C 89.355469 39.433594 89.59375 39.621094 89.761719 39.871094 C 89.925781 40.109375 90.011719 40.40625 90.011719 40.765625 C 90.011719 41.132812 89.90625 41.464844 89.699219 41.765625 C 89.488281 42.074219 89.1875 42.320312 88.800781 42.496094 C 88.425781 42.664062 87.988281 42.746094 87.488281 42.746094 C 86.683594 42.746094 86.0625 42.578125 85.636719 42.246094 C 85.21875 41.902344 84.953125 41.402344 84.84375 40.746094 Z M 84.84375 40.746094 "/>
<path style="fill-rule:nonzero;fill:rgb(100%,100%,100%);fill-opacity:1;stroke-width:1;stroke-linecap:round;stroke-linejoin:round;stroke:rgb(0%,0%,0%);stroke-opacity:1;stroke-miterlimit:10;" d="M 322.051758 70.347656 L 397.051758 70.347656 L 397.051758 101.847656 L 322.051758 101.847656 Z M 322.051758 70.347656 " transform="matrix(1.333333,0,0,1.333333,-124,-92)"/>
<path style="fill-rule:nonzero;fill:rgb(100%,100%,100%);fill-opacity:1;stroke-width:1;stroke-linecap:round;stroke-linejoin:round;stroke:rgb(0%,0%,0%);stroke-opacity:1;stroke-miterlimit:10;" d="M 315.213867 77.053711 L 390.213867 77.053711 L 390.213867 108.553711 L 315.213867 108.553711 Z M 315.213867 77.053711 " transform="matrix(1.333333,0,0,1.333333,-124,-92)"/>
<path style="fill-rule:nonzero;fill:rgb(100%,100%,100%);fill-opacity:1;stroke-width:1;stroke-linecap:round;stroke-linejoin:round;stroke:rgb(0%,0%,0%);stroke-opacity:1;stroke-miterlimit:10;" d="M 308.214844 83.053711 L 383.214844 83.053711 L 383.214844 114.553711 L 308.214844 114.553711 Z M 308.214844 83.053711 " transform="matrix(1.333333,0,0,1.333333,-124,-92)"/>
<path style=" stroke:none;fill-rule:nonzero;fill:rgb(0%,0%,0%);fill-opacity:1;" d="M 301.261719 43.070312 L 301.261719 35.488281 L 298.449219 35.488281 L 298.449219 34.488281 L 305.242188 34.488281 L 305.242188 35.488281 L 302.40625 35.488281 L 302.40625 43.070312 Z M 301.261719 43.070312 "/>
<path style=" stroke:none;fill-rule:nonzero;fill:rgb(0%,0%,0%);fill-opacity:1;" d="M 305.8125 43.070312 L 305.8125 36.84375 L 306.769531 36.84375 L 306.769531 37.800781 C 307.003906 37.359375 307.230469 37.066406 307.4375 36.925781 C 307.644531 36.789062 307.875 36.71875 308.125 36.71875 C 308.46875 36.71875 308.832031 36.832031 309.207031 37.050781 L 308.832031 38.03125 C 308.582031 37.878906 308.324219 37.800781 308.0625 37.800781 C 307.839844 37.800781 307.628906 37.875 307.4375 38.007812 C 307.253906 38.152344 307.125 38.34375 307.042969 38.59375 C 306.925781 38.96875 306.875 39.378906 306.875 39.820312 L 306.875 43.070312 Z M 305.8125 43.070312 "/>
<path style=" stroke:none;fill-rule:nonzero;fill:rgb(0%,0%,0%);fill-opacity:1;" d="M 313.890625 42.300781 C 313.5 42.632812 313.125 42.875 312.765625 43.007812 C 312.402344 43.144531 312.015625 43.21875 311.601562 43.21875 C 310.917969 43.21875 310.390625 43.050781 310.015625 42.71875 C 309.652344 42.382812 309.476562 41.957031 309.476562 41.425781 C 309.476562 41.125 309.542969 40.84375 309.683594 40.59375 C 309.820312 40.34375 310 40.144531 310.226562 39.988281 C 310.445312 39.839844 310.695312 39.71875 310.976562 39.632812 C 311.183594 39.59375 311.496094 39.546875 311.914062 39.488281 C 312.773438 39.394531 313.402344 39.269531 313.808594 39.113281 C 313.808594 38.980469 313.808594 38.882812 313.808594 38.84375 C 313.808594 38.414062 313.710938 38.113281 313.515625 37.945312 C 313.234375 37.695312 312.835938 37.570312 312.308594 37.570312 C 311.808594 37.570312 311.4375 37.664062 311.203125 37.84375 C 310.964844 38.007812 310.792969 38.316406 310.683594 38.757812 L 309.664062 38.632812 C 309.746094 38.191406 309.890625 37.839844 310.101562 37.570312 C 310.320312 37.296875 310.632812 37.089844 311.039062 36.945312 C 311.453125 36.796875 311.921875 36.71875 312.453125 36.71875 C 312.996094 36.71875 313.421875 36.78125 313.746094 36.90625 C 314.078125 37.03125 314.320312 37.191406 314.476562 37.382812 C 314.640625 37.566406 314.75 37.800781 314.808594 38.09375 C 314.851562 38.277344 314.871094 38.59375 314.871094 39.050781 L 314.871094 40.46875 C 314.871094 41.441406 314.890625 42.0625 314.933594 42.320312 C 314.976562 42.589844 315.0625 42.839844 315.203125 43.070312 L 314.101562 43.070312 C 313.984375 42.855469 313.917969 42.59375 313.890625 42.300781 Z M 313.808594 39.945312 C 313.417969 40.105469 312.839844 40.234375 312.078125 40.34375 C 311.648438 40.414062 311.339844 40.488281 311.164062 40.570312 C 310.980469 40.644531 310.839844 40.753906 310.746094 40.90625 C 310.648438 41.0625 310.601562 41.230469 310.601562 41.40625 C 310.601562 41.6875 310.703125 41.921875 310.914062 42.113281 C 311.121094 42.296875 311.433594 42.382812 311.851562 42.382812 C 312.25 42.382812 312.609375 42.296875 312.933594 42.113281 C 313.25 41.9375 313.484375 41.691406 313.640625 41.382812 C 313.75 41.152344 313.808594 40.800781 313.808594 40.34375 Z M 313.808594 39.945312 "/>
<path style=" stroke:none;fill-rule:nonzero;fill:rgb(0%,0%,0%);fill-opacity:1;" d="M 316.503906 35.695312 L 316.503906 34.488281 L 317.566406 34.488281 L 317.566406 35.695312 Z M 316.503906 43.070312 L 316.503906 36.84375 L 317.566406 36.84375 L 317.566406 43.070312 Z M 316.503906 43.070312 "/>
<path style=" stroke:none;fill-rule:nonzero;fill:rgb(0%,0%,0%);fill-opacity:1;" d="M 319.171875 43.070312 L 319.171875 36.84375 L 320.128906 36.84375 L 320.128906 37.738281 C 320.570312 37.0625 321.234375 36.71875 322.109375 36.71875 C 322.484375 36.71875 322.820312 36.789062 323.128906 36.925781 C 323.445312 37.050781 323.679688 37.230469 323.835938 37.445312 C 323.988281 37.65625 324.097656 37.914062 324.171875 38.21875 C 324.210938 38.414062 324.234375 38.753906 324.234375 39.238281 L 324.234375 43.070312 L 323.171875 43.070312 L 323.171875 39.28125 C 323.171875 38.855469 323.128906 38.53125 323.046875 38.320312 C 322.960938 38.113281 322.816406 37.945312 322.609375 37.820312 C 322.398438 37.6875 322.15625 37.613281 321.878906 37.613281 C 321.429688 37.613281 321.046875 37.757812 320.710938 38.050781 C 320.390625 38.332031 320.234375 38.875 320.234375 39.675781 L 320.234375 43.070312 Z M 319.171875 43.070312 "/>
<path style=" stroke:none;fill-rule:nonzero;fill:rgb(0%,0%,0%);fill-opacity:1;" d="M 325.84375 35.695312 L 325.84375 34.488281 L 326.90625 34.488281 L 326.90625 35.695312 Z M 325.84375 43.070312 L 325.84375 36.84375 L 326.90625 36.84375 L 326.90625 43.070312 Z M 325.84375 43.070312 "/>
<path style=" stroke:none;fill-rule:nonzero;fill:rgb(0%,0%,0%);fill-opacity:1;" d="M 328.511719 43.070312 L 328.511719 36.84375 L 329.46875 36.84375 L 329.46875 37.738281 C 329.914062 37.0625 330.574219 36.71875 331.449219 36.71875 C 331.824219 36.71875 332.164062 36.789062 332.46875 36.925781 C 332.789062 37.050781 333.023438 37.230469 333.179688 37.445312 C 333.328125 37.65625 333.4375 37.914062 333.511719 38.21875 C 333.554688 38.414062 333.574219 38.753906 333.574219 39.238281 L 333.574219 43.070312 L 332.511719 43.070312 L 332.511719 39.28125 C 332.511719 38.855469 332.46875 38.53125 332.386719 38.320312 C 332.304688 38.113281 332.15625 37.945312 331.949219 37.820312 C 331.742188 37.6875 331.496094 37.613281 331.21875 37.613281 C 330.773438 37.613281 330.386719 37.757812 330.054688 38.050781 C 329.730469 38.332031 329.574219 38.875 329.574219 39.675781 L 329.574219 43.070312 Z M 328.511719 43.070312 "/>
<path style=" stroke:none;fill-rule:nonzero;fill:rgb(0%,0%,0%);fill-opacity:1;" d="M 335 43.59375 L 336.019531 43.738281 C 336.0625 44.054688 336.175781 44.285156 336.375 44.425781 C 336.632812 44.617188 337 44.71875 337.457031 44.71875 C 337.941406 44.71875 338.316406 44.617188 338.582031 44.425781 C 338.84375 44.230469 339.023438 43.957031 339.125 43.613281 C 339.175781 43.390625 339.195312 42.941406 339.1875 42.257812 C 338.726562 42.800781 338.15625 43.070312 337.476562 43.070312 C 336.613281 43.070312 335.945312 42.769531 335.476562 42.15625 C 335.019531 41.53125 334.789062 40.789062 334.789062 39.925781 C 334.789062 39.332031 334.894531 38.78125 335.101562 38.28125 C 335.320312 37.78125 335.632812 37.402344 336.039062 37.132812 C 336.441406 36.859375 336.921875 36.71875 337.476562 36.71875 C 338.210938 36.71875 338.816406 37.007812 339.289062 37.59375 L 339.289062 36.84375 L 340.269531 36.84375 L 340.269531 42.21875 C 340.269531 43.1875 340.164062 43.875 339.957031 44.28125 C 339.757812 44.679688 339.445312 45 339.019531 45.238281 C 338.601562 45.472656 338.082031 45.59375 337.457031 45.59375 C 336.707031 45.59375 336.101562 45.425781 335.644531 45.09375 C 335.195312 44.757812 334.984375 44.257812 335 43.59375 Z M 335.875 39.84375 C 335.875 40.664062 336.03125 41.257812 336.351562 41.632812 C 336.671875 42.007812 337.070312 42.195312 337.5625 42.195312 C 338.046875 42.195312 338.457031 42.007812 338.789062 41.632812 C 339.125 41.257812 339.289062 40.675781 339.289062 39.882812 C 339.289062 39.125 339.113281 38.546875 338.769531 38.15625 C 338.4375 37.769531 338.03125 37.570312 337.5625 37.570312 C 337.085938 37.570312 336.6875 37.769531 336.351562 38.15625 C 336.03125 38.53125 335.875 39.09375 335.875 39.84375 Z M 335.875 39.84375 "/>
<path style=" stroke:none;fill-rule:nonzero;fill:rgb(0%,0%,0%);fill-opacity:1;" d="M 345.171875 43.070312 L 345.171875 34.488281 L 346.214844 34.488281 L 346.214844 43.070312 Z M 345.171875 43.070312 "/>
<path style=" stroke:none;fill-rule:nonzero;fill:rgb(0%,0%,0%);fill-opacity:1;" d="M 351.921875 42.300781 C 351.53125 42.632812 351.15625 42.875 350.796875 43.007812 C 350.433594 43.144531 350.046875 43.21875 349.632812 43.21875 C 348.949219 43.21875 348.421875 43.050781 348.046875 42.71875 C 347.683594 42.382812 347.507812 41.957031 347.507812 41.425781 C 347.507812 41.125 347.574219 40.84375 347.714844 40.59375 C 347.851562 40.34375 348.03125 40.144531 348.257812 39.988281 C 348.476562 39.839844 348.726562 39.71875 349.007812 39.632812 C 349.214844 39.59375 349.527344 39.546875 349.945312 39.488281 C 350.804688 39.394531 351.433594 39.269531 351.839844 39.113281 C 351.839844 38.980469 351.839844 38.882812 351.839844 38.84375 C 351.839844 38.414062 351.742188 38.113281 351.546875 37.945312 C 351.265625 37.695312 350.867188 37.570312 350.339844 37.570312 C 349.839844 37.570312 349.46875 37.664062 349.234375 37.84375 C 348.996094 38.007812 348.824219 38.316406 348.714844 38.757812 L 347.695312 38.632812 C 347.777344 38.191406 347.921875 37.839844 348.132812 37.570312 C 348.351562 37.296875 348.664062 37.089844 349.070312 36.945312 C 349.484375 36.796875 349.953125 36.71875 350.484375 36.71875 C 351.027344 36.71875 351.453125 36.78125 351.777344 36.90625 C 352.109375 37.03125 352.351562 37.191406 352.507812 37.382812 C 352.671875 37.566406 352.78125 37.800781 352.839844 38.09375 C 352.882812 38.277344 352.902344 38.59375 352.902344 39.050781 L 352.902344 40.46875 C 352.902344 41.441406 352.921875 42.0625 352.964844 42.320312 C 353.007812 42.589844 353.09375 42.839844 353.234375 43.070312 L 352.132812 43.070312 C 352.015625 42.855469 351.949219 42.59375 351.921875 42.300781 Z M 351.839844 39.945312 C 351.449219 40.105469 350.871094 40.234375 350.109375 40.34375 C 349.679688 40.414062 349.371094 40.488281 349.195312 40.570312 C 349.011719 40.644531 348.871094 40.753906 348.777344 40.90625 C 348.679688 41.0625 348.632812 41.230469 348.632812 41.40625 C 348.632812 41.6875 348.734375 41.921875 348.945312 42.113281 C 349.152344 42.296875 349.464844 42.382812 349.882812 42.382812 C 350.28125 42.382812 350.640625 42.296875 350.964844 42.113281 C 351.28125 41.9375 351.515625 41.691406 351.671875 41.382812 C 351.78125 41.152344 351.839844 40.800781 351.839844 40.34375 Z M 351.839844 39.945312 "/>
<path style=" stroke:none;fill-rule:nonzero;fill:rgb(0%,0%,0%);fill-opacity:1;" d="M 355.515625 43.070312 L 354.535156 43.070312 L 354.535156 34.488281 L 355.578125 34.488281 L 355.578125 37.550781 C 356.019531 37 356.585938 36.71875 357.285156 36.71875 C 357.671875 36.71875 358.035156 36.796875 358.367188 36.945312 C 358.710938 37.105469 359 37.316406 359.222656 37.59375 C 359.441406 37.875 359.617188 38.214844 359.742188 38.613281 C 359.867188 39.003906 359.929688 39.421875 359.929688 39.863281 C 359.929688 40.9375 359.664062 41.757812 359.140625 42.34375 C 358.609375 42.925781 357.976562 43.21875 357.242188 43.21875 C 356.503906 43.21875 355.929688 42.914062 355.515625 42.300781 Z M 355.492188 39.90625 C 355.492188 40.65625 355.597656 41.195312 355.804688 41.53125 C 356.140625 42.070312 356.582031 42.34375 357.140625 42.34375 C 357.609375 42.34375 358.015625 42.144531 358.347656 41.738281 C 358.679688 41.339844 358.847656 40.738281 358.847656 39.945312 C 358.847656 39.144531 358.6875 38.546875 358.367188 38.15625 C 358.046875 37.769531 357.660156 37.570312 357.203125 37.570312 C 356.726562 37.570312 356.328125 37.777344 355.992188 38.175781 C 355.660156 38.582031 355.492188 39.15625 355.492188 39.90625 Z M 355.492188 39.90625 "/>
<path style=" stroke:none;fill-rule:nonzero;fill:rgb(0%,0%,0%);fill-opacity:1;" d="M 365.460938 41.070312 L 366.5625 41.195312 C 366.378906 41.839844 366.050781 42.339844 365.585938 42.695312 C 365.125 43.046875 364.53125 43.21875 363.8125 43.21875 C 362.90625 43.21875 362.1875 42.941406 361.648438 42.382812 C 361.117188 41.816406 360.855469 41.027344 360.855469 40.007812 C 360.855469 38.96875 361.125 38.164062 361.667969 37.59375 C 362.210938 37.007812 362.90625 36.71875 363.773438 36.71875 C 364.605469 36.71875 365.277344 37.003906 365.792969 37.570312 C 366.316406 38.128906 366.585938 38.921875 366.585938 39.945312 C 366.585938 40.019531 366.585938 40.113281 366.585938 40.238281 L 361.9375 40.238281 C 361.980469 40.921875 362.171875 41.441406 362.523438 41.800781 C 362.867188 42.164062 363.300781 42.34375 363.835938 42.34375 C 364.21875 42.34375 364.546875 42.25 364.8125 42.050781 C 365.089844 41.84375 365.300781 41.519531 365.460938 41.070312 Z M 362 39.363281 L 365.480469 39.363281 C 365.4375 38.839844 365.300781 38.441406 365.085938 38.175781 C 364.75 37.777344 364.3125 37.570312 363.773438 37.570312 C 363.28125 37.570312 362.875 37.738281 362.542969 38.070312 C 362.21875 38.394531 362.042969 38.820312 362 39.363281 Z M 362 39.363281 "/>
<path style=" stroke:none;fill-rule:nonzero;fill:rgb(0%,0%,0%);fill-opacity:1;" d="M 367.863281 43.070312 L 367.863281 34.488281 L 368.902344 34.488281 L 368.902344 43.070312 Z M 367.863281 43.070312 "/>
<path style=" stroke:none;fill-rule:nonzero;fill:rgb(0%,0%,0%);fill-opacity:1;" d="M 370.132812 41.21875 L 371.175781 41.050781 C 371.226562 41.46875 371.386719 41.789062 371.652344 42.007812 C 371.929688 42.234375 372.304688 42.34375 372.777344 42.34375 C 373.261719 42.34375 373.621094 42.25 373.863281 42.050781 C 374.097656 41.859375 374.214844 41.628906 374.214844 41.363281 C 374.214844 41.113281 374.113281 40.925781 373.902344 40.800781 C 373.746094 40.707031 373.386719 40.582031 372.820312 40.425781 C 372.039062 40.234375 371.496094 40.066406 371.195312 39.925781 C 370.902344 39.789062 370.679688 39.59375 370.527344 39.34375 C 370.371094 39.09375 370.300781 38.816406 370.300781 38.507812 C 370.300781 38.234375 370.363281 37.980469 370.488281 37.738281 C 370.613281 37.503906 370.785156 37.300781 371.007812 37.132812 C 371.175781 37.027344 371.394531 36.925781 371.675781 36.84375 C 371.964844 36.757812 372.269531 36.71875 372.589844 36.71875 C 373.074219 36.71875 373.496094 36.789062 373.863281 36.925781 C 374.238281 37.066406 374.511719 37.253906 374.695312 37.488281 C 374.871094 37.730469 374.996094 38.046875 375.070312 38.445312 L 374.027344 38.59375 C 373.988281 38.277344 373.847656 38.027344 373.613281 37.84375 C 373.386719 37.664062 373.074219 37.570312 372.675781 37.570312 C 372.183594 37.570312 371.839844 37.65625 371.632812 37.820312 C 371.425781 37.980469 371.320312 38.164062 371.320312 38.382812 C 371.320312 38.527344 371.363281 38.644531 371.445312 38.738281 C 371.527344 38.863281 371.664062 38.964844 371.863281 39.03125 C 371.957031 39.070312 372.261719 39.164062 372.777344 39.300781 C 373.527344 39.5 374.050781 39.65625 374.339844 39.78125 C 374.644531 39.90625 374.882812 40.09375 375.050781 40.34375 C 375.214844 40.582031 375.300781 40.878906 375.300781 41.238281 C 375.300781 41.605469 375.195312 41.9375 374.988281 42.238281 C 374.777344 42.546875 374.476562 42.789062 374.089844 42.96875 C 373.714844 43.132812 373.277344 43.21875 372.777344 43.21875 C 371.972656 43.21875 371.351562 43.050781 370.925781 42.71875 C 370.507812 42.375 370.242188 41.875 370.132812 41.21875 Z M 370.132812 41.21875 "/>
<path style="fill-rule:nonzero;fill:rgb(69.803923%,85.09804%,100%);fill-opacity:1;stroke-width:1;stroke-linecap:round;stroke-linejoin:round;stroke:rgb(0%,0%,0%);stroke-opacity:1;stroke-miterlimit:10;" d="M 203.961914 82.699219 L 278.961914 82.699219 L 278.961914 114.199219 L 203.961914 114.199219 Z M 203.961914 82.699219 " transform="matrix(1.333333,0,0,1.333333,-124,-92)"/>
<path style=" stroke:none;fill-rule:nonzero;fill:rgb(0%,0%,0%);fill-opacity:1;" d="M 168.472656 33.457031 L 169.535156 33.351562 C 169.589844 33.785156 169.707031 34.140625 169.890625 34.414062 C 170.082031 34.695312 170.375 34.914062 170.765625 35.082031 C 171.152344 35.25 171.589844 35.332031 172.078125 35.332031 C 172.503906 35.332031 172.890625 35.269531 173.222656 35.144531 C 173.558594 35.019531 173.808594 34.847656 173.972656 34.625 C 174.140625 34.390625 174.222656 34.140625 174.222656 33.875 C 174.222656 33.613281 174.140625 33.382812 173.972656 33.1875 C 173.816406 32.976562 173.5625 32.804688 173.203125 32.664062 C 172.980469 32.570312 172.472656 32.429688 171.683594 32.25 C 170.890625 32.054688 170.332031 31.875 170.015625 31.707031 C 169.609375 31.5 169.308594 31.238281 169.097656 30.914062 C 168.902344 30.597656 168.808594 30.238281 168.808594 29.832031 C 168.808594 29.40625 168.921875 29 169.160156 28.625 C 169.410156 28.25 169.769531 27.96875 170.246094 27.769531 C 170.714844 27.578125 171.246094 27.476562 171.828125 27.476562 C 172.464844 27.476562 173.027344 27.582031 173.515625 27.789062 C 174 27.988281 174.371094 28.285156 174.621094 28.6875 C 174.878906 29.09375 175.027344 29.539062 175.058594 30.039062 L 173.953125 30.125 C 173.894531 29.582031 173.703125 29.175781 173.371094 28.894531 C 173.035156 28.617188 172.535156 28.476562 171.871094 28.476562 C 171.1875 28.476562 170.6875 28.601562 170.371094 28.851562 C 170.046875 29.101562 169.890625 29.410156 169.890625 29.769531 C 169.890625 30.078125 170 30.328125 170.222656 30.519531 C 170.441406 30.726562 171.015625 30.9375 171.933594 31.144531 C 172.859375 31.351562 173.5 31.535156 173.847656 31.6875 C 174.347656 31.910156 174.714844 32.203125 174.953125 32.5625 C 175.1875 32.910156 175.308594 33.320312 175.308594 33.789062 C 175.308594 34.238281 175.171875 34.664062 174.910156 35.082031 C 174.644531 35.488281 174.269531 35.800781 173.785156 36.019531 C 173.296875 36.238281 172.75 36.351562 172.140625 36.351562 C 171.359375 36.351562 170.707031 36.238281 170.183594 36.019531 C 169.652344 35.785156 169.234375 35.445312 168.933594 35 C 168.640625 34.539062 168.484375 34.03125 168.472656 33.457031 Z M 168.472656 33.457031 "/>
<path style=" stroke:none;fill-rule:nonzero;fill:rgb(0%,0%,0%);fill-opacity:1;" d="M 180.8125 36.207031 L 180.8125 35.289062 C 180.320312 36 179.664062 36.351562 178.832031 36.351562 C 178.46875 36.351562 178.128906 36.28125 177.8125 36.144531 C 177.488281 35.992188 177.25 35.8125 177.082031 35.601562 C 176.925781 35.394531 176.820312 35.140625 176.769531 34.832031 C 176.726562 34.625 176.707031 34.289062 176.707031 33.832031 L 176.707031 29.976562 L 177.75 29.976562 L 177.75 33.4375 C 177.75 33.992188 177.773438 34.363281 177.832031 34.539062 C 177.882812 34.820312 178.019531 35.039062 178.226562 35.207031 C 178.445312 35.363281 178.71875 35.4375 179.039062 35.4375 C 179.359375 35.4375 179.65625 35.363281 179.9375 35.207031 C 180.210938 35.039062 180.40625 34.820312 180.519531 34.539062 C 180.628906 34.265625 180.6875 33.851562 180.6875 33.3125 L 180.6875 29.976562 L 181.75 29.976562 L 181.75 36.207031 Z M 180.8125 36.207031 "/>
<path style=" stroke:none;fill-rule:nonzero;fill:rgb(0%,0%,0%);fill-opacity:1;" d="M 183.402344 38.582031 L 183.402344 29.976562 L 184.359375 29.976562 L 184.359375 30.789062 C 184.578125 30.472656 184.828125 30.238281 185.109375 30.082031 C 185.402344 29.929688 185.757812 29.851562 186.171875 29.851562 C 186.699219 29.851562 187.164062 29.992188 187.570312 30.269531 C 187.96875 30.535156 188.277344 30.914062 188.484375 31.414062 C 188.695312 31.914062 188.796875 32.457031 188.796875 33.039062 C 188.796875 33.679688 188.679688 34.257812 188.445312 34.769531 C 188.21875 35.285156 187.890625 35.679688 187.464844 35.957031 C 187.03125 36.21875 186.574219 36.351562 186.089844 36.351562 C 185.742188 36.351562 185.429688 36.273438 185.152344 36.125 C 184.871094 35.972656 184.640625 35.785156 184.464844 35.5625 L 184.464844 38.582031 Z M 184.359375 33.125 C 184.359375 33.929688 184.515625 34.53125 184.839844 34.914062 C 185.171875 35.289062 185.570312 35.476562 186.027344 35.476562 C 186.484375 35.476562 186.882812 35.285156 187.214844 34.894531 C 187.558594 34.492188 187.734375 33.875 187.734375 33.039062 C 187.734375 32.25 187.570312 31.660156 187.234375 31.269531 C 186.914062 30.867188 186.527344 30.664062 186.070312 30.664062 C 185.621094 30.664062 185.226562 30.882812 184.882812 31.3125 C 184.53125 31.726562 184.359375 32.332031 184.359375 33.125 Z M 184.359375 33.125 "/>
<path style=" stroke:none;fill-rule:nonzero;fill:rgb(0%,0%,0%);fill-opacity:1;" d="M 194.328125 34.207031 L 195.429688 34.332031 C 195.25 34.972656 194.921875 35.472656 194.453125 35.832031 C 193.992188 36.179688 193.398438 36.351562 192.679688 36.351562 C 191.773438 36.351562 191.054688 36.078125 190.515625 35.519531 C 189.984375 34.953125 189.722656 34.160156 189.722656 33.144531 C 189.722656 32.101562 189.992188 31.300781 190.535156 30.726562 C 191.078125 30.144531 191.773438 29.851562 192.640625 29.851562 C 193.472656 29.851562 194.144531 30.140625 194.660156 30.707031 C 195.1875 31.265625 195.453125 32.054688 195.453125 33.082031 C 195.453125 33.15625 195.453125 33.25 195.453125 33.375 L 190.804688 33.375 C 190.847656 34.054688 191.039062 34.578125 191.390625 34.9375 C 191.734375 35.300781 192.171875 35.476562 192.703125 35.476562 C 193.085938 35.476562 193.414062 35.382812 193.679688 35.1875 C 193.957031 34.976562 194.171875 34.65625 194.328125 34.207031 Z M 190.867188 32.5 L 194.347656 32.5 C 194.304688 31.972656 194.171875 31.578125 193.953125 31.3125 C 193.617188 30.910156 193.179688 30.707031 192.640625 30.707031 C 192.148438 30.707031 191.742188 30.875 191.410156 31.207031 C 191.085938 31.53125 190.910156 31.957031 190.867188 32.5 Z M 190.867188 32.5 "/>
<path style=" stroke:none;fill-rule:nonzero;fill:rgb(0%,0%,0%);fill-opacity:1;" d="M 196.730469 36.207031 L 196.730469 29.976562 L 197.6875 29.976562 L 197.6875 30.9375 C 197.921875 30.492188 198.148438 30.203125 198.355469 30.0625 C 198.5625 29.925781 198.792969 29.851562 199.042969 29.851562 C 199.386719 29.851562 199.75 29.96875 200.125 30.1875 L 199.75 31.164062 C 199.5 31.015625 199.242188 30.9375 198.980469 30.9375 C 198.757812 30.9375 198.546875 31.007812 198.355469 31.144531 C 198.171875 31.285156 198.042969 31.476562 197.960938 31.726562 C 197.84375 32.101562 197.792969 32.515625 197.792969 32.957031 L 197.792969 36.207031 Z M 196.730469 36.207031 "/>
<path style=" stroke:none;fill-rule:nonzero;fill:rgb(0%,0%,0%);fill-opacity:1;" d="M 202.476562 36.207031 L 200.101562 29.976562 L 201.226562 29.976562 L 202.558594 33.707031 C 202.695312 34.113281 202.832031 34.53125 202.957031 34.957031 C 203.050781 34.640625 203.183594 34.25 203.351562 33.789062 L 204.726562 29.976562 L 205.808594 29.976562 L 203.457031 36.207031 Z M 202.476562 36.207031 "/>
<path style=" stroke:none;fill-rule:nonzero;fill:rgb(0%,0%,0%);fill-opacity:1;" d="M 206.746094 28.832031 L 206.746094 27.625 L 207.808594 27.625 L 207.808594 28.832031 Z M 206.746094 36.207031 L 206.746094 29.976562 L 207.808594 29.976562 L 207.808594 36.207031 Z M 206.746094 36.207031 "/>
<path style=" stroke:none;fill-rule:nonzero;fill:rgb(0%,0%,0%);fill-opacity:1;" d="M 208.996094 34.351562 L 210.039062 34.1875 C 210.089844 34.601562 210.253906 34.925781 210.519531 35.144531 C 210.792969 35.367188 211.167969 35.476562 211.644531 35.476562 C 212.128906 35.476562 212.488281 35.382812 212.726562 35.1875 C 212.960938 34.992188 213.082031 34.765625 213.082031 34.5 C 213.082031 34.25 212.976562 34.0625 212.769531 33.9375 C 212.613281 33.84375 212.253906 33.71875 211.683594 33.5625 C 210.902344 33.367188 210.363281 33.203125 210.058594 33.0625 C 209.769531 32.925781 209.542969 32.726562 209.394531 32.476562 C 209.238281 32.226562 209.164062 31.953125 209.164062 31.644531 C 209.164062 31.367188 209.226562 31.113281 209.351562 30.875 C 209.476562 30.640625 209.648438 30.4375 209.871094 30.269531 C 210.039062 30.160156 210.257812 30.0625 210.539062 29.976562 C 210.832031 29.894531 211.132812 29.851562 211.457031 29.851562 C 211.941406 29.851562 212.363281 29.925781 212.726562 30.0625 C 213.101562 30.203125 213.378906 30.390625 213.558594 30.625 C 213.738281 30.863281 213.863281 31.179688 213.933594 31.582031 L 212.894531 31.726562 C 212.851562 31.410156 212.710938 31.160156 212.476562 30.976562 C 212.253906 30.800781 211.941406 30.707031 211.539062 30.707031 C 211.050781 30.707031 210.707031 30.789062 210.496094 30.957031 C 210.289062 31.113281 210.183594 31.300781 210.183594 31.519531 C 210.183594 31.660156 210.226562 31.78125 210.308594 31.875 C 210.394531 32 210.527344 32.097656 210.726562 32.164062 C 210.820312 32.207031 211.128906 32.300781 211.644531 32.4375 C 212.394531 32.632812 212.914062 32.789062 213.207031 32.914062 C 213.507812 33.039062 213.746094 33.226562 213.914062 33.476562 C 214.082031 33.71875 214.164062 34.015625 214.164062 34.375 C 214.164062 34.738281 214.058594 35.070312 213.851562 35.375 C 213.644531 35.679688 213.339844 35.925781 212.957031 36.101562 C 212.582031 36.269531 212.144531 36.351562 211.644531 36.351562 C 210.835938 36.351562 210.214844 36.1875 209.789062 35.851562 C 209.371094 35.507812 209.105469 35.007812 208.996094 34.351562 Z M 208.996094 34.351562 "/>
<path style=" stroke:none;fill-rule:nonzero;fill:rgb(0%,0%,0%);fill-opacity:1;" d="M 219.664062 34.207031 L 220.769531 34.332031 C 220.585938 34.972656 220.257812 35.472656 219.789062 35.832031 C 219.332031 36.179688 218.738281 36.351562 218.019531 36.351562 C 217.113281 36.351562 216.394531 36.078125 215.851562 35.519531 C 215.320312 34.953125 215.058594 34.160156 215.058594 33.144531 C 215.058594 32.101562 215.332031 31.300781 215.871094 30.726562 C 216.414062 30.144531 217.113281 29.851562 217.976562 29.851562 C 218.808594 29.851562 219.480469 30.140625 219.996094 30.707031 C 220.523438 31.265625 220.789062 32.054688 220.789062 33.082031 C 220.789062 33.15625 220.789062 33.25 220.789062 33.375 L 216.144531 33.375 C 216.183594 34.054688 216.378906 34.578125 216.726562 34.9375 C 217.070312 35.300781 217.507812 35.476562 218.039062 35.476562 C 218.425781 35.476562 218.753906 35.382812 219.019531 35.1875 C 219.292969 34.976562 219.507812 34.65625 219.664062 34.207031 Z M 216.207031 32.5 L 219.683594 32.5 C 219.644531 31.972656 219.507812 31.578125 219.289062 31.3125 C 218.957031 30.910156 218.519531 30.707031 217.976562 30.707031 C 217.488281 30.707031 217.082031 30.875 216.746094 31.207031 C 216.425781 31.53125 216.246094 31.957031 216.207031 32.5 Z M 216.207031 32.5 "/>
<path style=" stroke:none;fill-rule:nonzero;fill:rgb(0%,0%,0%);fill-opacity:1;" d="M 226.128906 36.207031 L 226.128906 35.414062 C 225.722656 36.039062 225.140625 36.351562 224.378906 36.351562 C 223.890625 36.351562 223.441406 36.210938 223.027344 35.9375 C 222.609375 35.660156 222.28125 35.28125 222.046875 34.789062 C 221.824219 34.304688 221.714844 33.742188 221.714844 33.101562 C 221.714844 32.476562 221.816406 31.914062 222.027344 31.414062 C 222.234375 30.90625 222.535156 30.515625 222.941406 30.25 C 223.359375 29.988281 223.824219 29.851562 224.339844 29.851562 C 224.714844 29.851562 225.046875 29.929688 225.339844 30.082031 C 225.628906 30.238281 225.863281 30.445312 226.046875 30.707031 L 226.046875 27.625 L 227.109375 27.625 L 227.109375 36.207031 Z M 222.796875 33.101562 C 222.796875 33.894531 222.964844 34.492188 223.296875 34.894531 C 223.628906 35.285156 224.027344 35.476562 224.484375 35.476562 C 224.941406 35.476562 225.328125 35.289062 225.652344 34.914062 C 225.984375 34.539062 226.152344 33.96875 226.152344 33.1875 C 226.152344 32.34375 225.984375 31.71875 225.652344 31.3125 C 225.316406 30.910156 224.910156 30.707031 224.441406 30.707031 C 223.96875 30.707031 223.574219 30.90625 223.253906 31.289062 C 222.949219 31.679688 222.796875 32.285156 222.796875 33.101562 Z M 222.796875 33.101562 "/>
<path style=" stroke:none;fill-rule:nonzero;fill:rgb(0%,0%,0%);fill-opacity:1;" d="M 177.371094 49.933594 L 177.371094 41.351562 L 178.414062 41.351562 L 178.414062 49.933594 Z M 177.371094 49.933594 "/>
<path style=" stroke:none;fill-rule:nonzero;fill:rgb(0%,0%,0%);fill-opacity:1;" d="M 184.308594 47.933594 L 185.414062 48.058594 C 185.230469 48.699219 184.902344 49.199219 184.433594 49.558594 C 183.976562 49.90625 183.382812 50.078125 182.664062 50.078125 C 181.757812 50.078125 181.039062 49.804688 180.496094 49.246094 C 179.964844 48.679688 179.707031 47.886719 179.707031 46.871094 C 179.707031 45.828125 179.976562 45.027344 180.519531 44.453125 C 181.058594 43.871094 181.757812 43.578125 182.621094 43.578125 C 183.457031 43.578125 184.128906 43.867188 184.644531 44.433594 C 185.167969 44.992188 185.433594 45.78125 185.433594 46.808594 C 185.433594 46.882812 185.433594 46.976562 185.433594 47.101562 L 180.789062 47.101562 C 180.832031 47.78125 181.023438 48.304688 181.371094 48.664062 C 181.714844 49.027344 182.152344 49.203125 182.683594 49.203125 C 183.070312 49.203125 183.398438 49.109375 183.664062 48.914062 C 183.941406 48.703125 184.152344 48.382812 184.308594 47.933594 Z M 180.851562 46.226562 L 184.332031 46.226562 C 184.289062 45.699219 184.152344 45.304688 183.933594 45.039062 C 183.601562 44.636719 183.164062 44.433594 182.621094 44.433594 C 182.132812 44.433594 181.726562 44.601562 181.394531 44.933594 C 181.070312 45.257812 180.894531 45.683594 180.851562 46.226562 Z M 180.851562 46.226562 "/>
<path style=" stroke:none;fill-rule:nonzero;fill:rgb(0%,0%,0%);fill-opacity:1;" d="M 190.796875 49.164062 C 190.40625 49.496094 190.03125 49.734375 189.671875 49.871094 C 189.308594 50.007812 188.921875 50.078125 188.503906 50.078125 C 187.824219 50.078125 187.296875 49.914062 186.921875 49.578125 C 186.558594 49.246094 186.378906 48.820312 186.378906 48.289062 C 186.378906 47.984375 186.449219 47.703125 186.589844 47.453125 C 186.722656 47.203125 186.90625 47.007812 187.128906 46.851562 C 187.347656 46.699219 187.597656 46.578125 187.878906 46.496094 C 188.089844 46.453125 188.402344 46.40625 188.816406 46.351562 C 189.675781 46.257812 190.308594 46.132812 190.714844 45.976562 C 190.714844 45.839844 190.714844 45.746094 190.714844 45.703125 C 190.714844 45.277344 190.613281 44.976562 190.421875 44.808594 C 190.140625 44.558594 189.738281 44.433594 189.214844 44.433594 C 188.714844 44.433594 188.34375 44.527344 188.109375 44.703125 C 187.871094 44.871094 187.699219 45.179688 187.589844 45.621094 L 186.566406 45.496094 C 186.652344 45.054688 186.796875 44.699219 187.003906 44.433594 C 187.222656 44.15625 187.535156 43.949219 187.941406 43.808594 C 188.359375 43.65625 188.828125 43.578125 189.359375 43.578125 C 189.902344 43.578125 190.328125 43.640625 190.652344 43.765625 C 190.984375 43.890625 191.222656 44.054688 191.378906 44.246094 C 191.546875 44.429688 191.65625 44.664062 191.714844 44.953125 C 191.753906 45.136719 191.777344 45.453125 191.777344 45.914062 L 191.777344 47.328125 C 191.777344 48.304688 191.796875 48.921875 191.839844 49.183594 C 191.878906 49.449219 191.96875 49.699219 192.109375 49.933594 L 191.003906 49.933594 C 190.890625 49.714844 190.824219 49.453125 190.796875 49.164062 Z M 190.714844 46.808594 C 190.324219 46.964844 189.746094 47.09375 188.984375 47.203125 C 188.550781 47.277344 188.246094 47.351562 188.066406 47.433594 C 187.886719 47.507812 187.746094 47.617188 187.652344 47.765625 C 187.550781 47.921875 187.503906 48.089844 187.503906 48.265625 C 187.503906 48.546875 187.609375 48.78125 187.816406 48.976562 C 188.027344 49.15625 188.339844 49.246094 188.753906 49.246094 C 189.15625 49.246094 189.515625 49.15625 189.839844 48.976562 C 190.15625 48.796875 190.390625 48.554688 190.546875 48.246094 C 190.65625 48.011719 190.714844 47.664062 190.714844 47.203125 Z M 190.714844 46.808594 "/>
<path style=" stroke:none;fill-rule:nonzero;fill:rgb(0%,0%,0%);fill-opacity:1;" d="M 193.386719 49.933594 L 193.386719 43.703125 L 194.34375 43.703125 L 194.34375 44.664062 C 194.578125 44.21875 194.804688 43.929688 195.011719 43.789062 C 195.21875 43.652344 195.449219 43.578125 195.699219 43.578125 C 196.042969 43.578125 196.40625 43.695312 196.78125 43.914062 L 196.40625 44.890625 C 196.15625 44.742188 195.898438 44.664062 195.636719 44.664062 C 195.414062 44.664062 195.203125 44.734375 195.011719 44.871094 C 194.828125 45.011719 194.699219 45.203125 194.617188 45.453125 C 194.5 45.828125 194.449219 46.242188 194.449219 46.683594 L 194.449219 49.933594 Z M 193.386719 49.933594 "/>
<path style=" stroke:none;fill-rule:nonzero;fill:rgb(0%,0%,0%);fill-opacity:1;" d="M 197.402344 49.933594 L 197.402344 43.703125 L 198.363281 43.703125 L 198.363281 44.601562 C 198.804688 43.921875 199.464844 43.578125 200.339844 43.578125 C 200.714844 43.578125 201.054688 43.652344 201.363281 43.789062 C 201.679688 43.914062 201.914062 44.089844 202.070312 44.308594 C 202.222656 44.515625 202.332031 44.777344 202.402344 45.078125 C 202.445312 45.277344 202.464844 45.617188 202.464844 46.101562 L 202.464844 49.933594 L 201.402344 49.933594 L 201.402344 46.140625 C 201.402344 45.714844 201.363281 45.390625 201.277344 45.183594 C 201.195312 44.976562 201.050781 44.808594 200.839844 44.683594 C 200.632812 44.546875 200.386719 44.476562 200.113281 44.476562 C 199.664062 44.476562 199.277344 44.621094 198.945312 44.914062 C 198.621094 45.195312 198.464844 45.734375 198.464844 46.539062 L 198.464844 49.933594 Z M 197.402344 49.933594 "/>
<path style=" stroke:none;fill-rule:nonzero;fill:rgb(0%,0%,0%);fill-opacity:1;" d="M 204.078125 42.558594 L 204.078125 41.351562 L 205.140625 41.351562 L 205.140625 42.558594 Z M 204.078125 49.933594 L 204.078125 43.703125 L 205.140625 43.703125 L 205.140625 49.933594 Z M 204.078125 49.933594 "/>
<path style=" stroke:none;fill-rule:nonzero;fill:rgb(0%,0%,0%);fill-opacity:1;" d="M 206.746094 49.933594 L 206.746094 43.703125 L 207.703125 43.703125 L 207.703125 44.601562 C 208.144531 43.921875 208.808594 43.578125 209.683594 43.578125 C 210.058594 43.578125 210.394531 43.652344 210.703125 43.789062 C 211.019531 43.914062 211.253906 44.089844 211.410156 44.308594 C 211.5625 44.515625 211.671875 44.777344 211.746094 45.078125 C 211.785156 45.277344 211.808594 45.617188 211.808594 46.101562 L 211.808594 49.933594 L 210.746094 49.933594 L 210.746094 46.140625 C 210.746094 45.714844 210.703125 45.390625 210.621094 45.183594 C 210.535156 44.976562 210.390625 44.808594 210.183594 44.683594 C 209.972656 44.546875 209.730469 44.476562 209.453125 44.476562 C 209.003906 44.476562 208.621094 44.621094 208.285156 44.914062 C 207.964844 45.195312 207.808594 45.734375 207.808594 46.539062 L 207.808594 49.933594 Z M 206.746094 49.933594 "/>
<path style=" stroke:none;fill-rule:nonzero;fill:rgb(0%,0%,0%);fill-opacity:1;" d="M 213.230469 50.453125 L 214.253906 50.601562 C 214.292969 50.917969 214.410156 51.148438 214.605469 51.289062 C 214.867188 51.480469 215.230469 51.578125 215.691406 51.578125 C 216.175781 51.578125 216.550781 51.480469 216.816406 51.289062 C 217.074219 51.089844 217.257812 50.820312 217.355469 50.476562 C 217.410156 50.25 217.429688 49.804688 217.417969 49.121094 C 216.960938 49.664062 216.386719 49.933594 215.710938 49.933594 C 214.847656 49.933594 214.179688 49.632812 213.710938 49.015625 C 213.253906 48.390625 213.023438 47.652344 213.023438 46.789062 C 213.023438 46.195312 213.128906 45.640625 213.335938 45.140625 C 213.554688 44.640625 213.867188 44.261719 214.273438 43.996094 C 214.675781 43.71875 215.152344 43.578125 215.710938 43.578125 C 216.445312 43.578125 217.050781 43.871094 217.523438 44.453125 L 217.523438 43.703125 L 218.503906 43.703125 L 218.503906 49.078125 C 218.503906 50.046875 218.398438 50.734375 218.191406 51.140625 C 217.992188 51.542969 217.679688 51.859375 217.253906 52.101562 C 216.835938 52.335938 216.316406 52.453125 215.691406 52.453125 C 214.941406 52.453125 214.335938 52.289062 213.878906 51.953125 C 213.429688 51.621094 213.214844 51.121094 213.230469 50.453125 Z M 214.105469 46.703125 C 214.105469 47.527344 214.261719 48.121094 214.585938 48.496094 C 214.902344 48.871094 215.304688 49.058594 215.792969 49.058594 C 216.277344 49.058594 216.691406 48.871094 217.023438 48.496094 C 217.355469 48.121094 217.523438 47.539062 217.523438 46.746094 C 217.523438 45.984375 217.347656 45.40625 217.003906 45.015625 C 216.667969 44.632812 216.261719 44.433594 215.792969 44.433594 C 215.320312 44.433594 214.917969 44.632812 214.585938 45.015625 C 214.261719 45.390625 214.105469 45.953125 214.105469 46.703125 Z M 214.105469 46.703125 "/>
<path style="fill-rule:nonzero;fill:rgb(40.000001%,74.901962%,100%);fill-opacity:1;stroke-width:1;stroke-linecap:round;stroke-linejoin:round;stroke:rgb(0%,0%,0%);stroke-opacity:1;stroke-miterlimit:10;" d="M 203.961914 129.500977 L 278.961914 129.500977 L 278.961914 161.000977 L 203.961914 161.000977 Z M 203.961914 129.500977 " transform="matrix(1.333333,0,0,1.333333,-124,-92)"/>
<path style=" stroke:none;fill-rule:nonzero;fill:rgb(0%,0%,0%);fill-opacity:1;" d="M 182.503906 105 L 182.503906 96.417969 L 184.210938 96.417969 L 186.234375 102.5 C 186.425781 103.058594 186.566406 103.480469 186.648438 103.769531 C 186.742188 103.453125 186.898438 102.996094 187.109375 102.394531 L 189.171875 96.417969 L 190.691406 96.417969 L 190.691406 105 L 189.609375 105 L 189.609375 97.8125 L 187.109375 105 L 186.085938 105 L 183.585938 97.6875 L 183.585938 105 Z M 182.503906 105 "/>
<path style=" stroke:none;fill-rule:nonzero;fill:rgb(0%,0%,0%);fill-opacity:1;" d="M 192 101.894531 C 192 100.746094 192.316406 99.890625 192.957031 99.332031 C 193.5 98.875 194.152344 98.644531 194.917969 98.644531 C 195.777344 98.644531 196.480469 98.925781 197.019531 99.480469 C 197.5625 100.035156 197.832031 100.808594 197.832031 101.792969 C 197.832031 102.597656 197.707031 103.230469 197.457031 103.6875 C 197.21875 104.144531 196.875 104.511719 196.417969 104.769531 C 195.957031 105.019531 195.457031 105.144531 194.917969 105.144531 C 194.042969 105.144531 193.332031 104.871094 192.792969 104.3125 C 192.261719 103.746094 192 102.9375 192 101.894531 Z M 193.082031 101.894531 C 193.082031 102.6875 193.253906 103.285156 193.605469 103.6875 C 193.949219 104.078125 194.386719 104.269531 194.917969 104.269531 C 195.441406 104.269531 195.878906 104.078125 196.230469 103.6875 C 196.574219 103.285156 196.75 102.675781 196.75 101.855469 C 196.75 101.09375 196.574219 100.511719 196.230469 100.105469 C 195.878906 99.703125 195.441406 99.5 194.917969 99.5 C 194.386719 99.5 193.949219 99.703125 193.605469 100.105469 C 193.253906 100.496094 193.082031 101.09375 193.082031 101.894531 Z M 193.082031 101.894531 "/>
<path style=" stroke:none;fill-rule:nonzero;fill:rgb(0%,0%,0%);fill-opacity:1;" d="M 203.113281 105 L 203.113281 104.207031 C 202.707031 104.832031 202.121094 105.144531 201.363281 105.144531 C 200.871094 105.144531 200.425781 105.003906 200.007812 104.730469 C 199.589844 104.453125 199.261719 104.074219 199.027344 103.582031 C 198.804688 103.097656 198.695312 102.535156 198.695312 101.894531 C 198.695312 101.269531 198.800781 100.707031 199.007812 100.207031 C 199.214844 99.699219 199.519531 99.308594 199.925781 99.042969 C 200.339844 98.78125 200.804688 98.644531 201.320312 98.644531 C 201.695312 98.644531 202.027344 98.722656 202.320312 98.875 C 202.613281 99.03125 202.847656 99.238281 203.027344 99.5 L 203.027344 96.417969 L 204.089844 96.417969 L 204.089844 105 Z M 199.777344 101.894531 C 199.777344 102.6875 199.945312 103.285156 200.277344 103.6875 C 200.613281 104.078125 201.007812 104.269531 201.464844 104.269531 C 201.925781 104.269531 202.308594 104.082031 202.632812 103.707031 C 202.964844 103.332031 203.132812 102.761719 203.132812 101.980469 C 203.132812 101.136719 202.964844 100.511719 202.632812 100.105469 C 202.300781 99.703125 201.894531 99.5 201.425781 99.5 C 200.949219 99.5 200.554688 99.699219 200.238281 100.082031 C 199.929688 100.472656 199.777344 101.078125 199.777344 101.894531 Z M 199.777344 101.894531 "/>
<path style=" stroke:none;fill-rule:nonzero;fill:rgb(0%,0%,0%);fill-opacity:1;" d="M 209.996094 103 L 211.097656 103.125 C 210.917969 103.765625 210.589844 104.265625 210.121094 104.625 C 209.660156 104.972656 209.066406 105.144531 208.347656 105.144531 C 207.441406 105.144531 206.722656 104.871094 206.183594 104.3125 C 205.652344 103.746094 205.390625 102.953125 205.390625 101.9375 C 205.390625 100.894531 205.660156 100.09375 206.203125 99.519531 C 206.746094 98.9375 207.441406 98.644531 208.308594 98.644531 C 209.140625 98.644531 209.8125 98.933594 210.328125 99.5 C 210.855469 100.058594 211.121094 100.847656 211.121094 101.875 C 211.121094 101.949219 211.121094 102.042969 211.121094 102.167969 L 206.472656 102.167969 C 206.515625 102.847656 206.707031 103.371094 207.058594 103.730469 C 207.402344 104.09375 207.839844 104.269531 208.371094 104.269531 C 208.753906 104.269531 209.082031 104.175781 209.347656 103.980469 C 209.625 103.769531 209.839844 103.449219 209.996094 103 Z M 206.535156 101.292969 L 210.015625 101.292969 C 209.972656 100.765625 209.839844 100.371094 209.621094 100.105469 C 209.285156 99.703125 208.847656 99.5 208.308594 99.5 C 207.816406 99.5 207.410156 99.667969 207.078125 100 C 206.753906 100.324219 206.578125 100.75 206.535156 101.292969 Z M 206.535156 101.292969 "/>
<path style=" stroke:none;fill-rule:nonzero;fill:rgb(0%,0%,0%);fill-opacity:1;" d="M 212.398438 105 L 212.398438 96.417969 L 213.441406 96.417969 L 213.441406 105 Z M 212.398438 105 "/>
<path style="fill-rule:nonzero;fill:rgb(100%,100%,100%);fill-opacity:1;stroke-width:1;stroke-linecap:round;stroke-linejoin:round;stroke:rgb(0%,0%,0%);stroke-opacity:1;stroke-miterlimit:10;" d="M 308.214844 129.500977 L 383.214844 129.500977 L 383.214844 161.000977 L 308.214844 161.000977 Z M 308.214844 129.500977 " transform="matrix(1.333333,0,0,1.333333,-124,-92)"/>
<path style=" stroke:none;fill-rule:nonzero;fill:rgb(0%,0%,0%);fill-opacity:1;" d="M 319.527344 100.8125 C 319.527344 99.394531 319.90625 98.285156 320.671875 97.480469 C 321.433594 96.660156 322.421875 96.25 323.632812 96.25 C 324.421875 96.25 325.136719 96.449219 325.777344 96.832031 C 326.414062 97.207031 326.902344 97.738281 327.234375 98.417969 C 327.570312 99.097656 327.734375 99.863281 327.734375 100.707031 C 327.734375 101.582031 327.558594 102.371094 327.214844 103.0625 C 326.867188 103.746094 326.367188 104.265625 325.714844 104.625 C 325.074219 104.972656 324.382812 105.144531 323.632812 105.144531 C 322.824219 105.144531 322.101562 104.953125 321.464844 104.5625 C 320.824219 104.175781 320.339844 103.640625 320.007812 102.957031 C 319.683594 102.28125 319.527344 101.5625 319.527344 100.8125 Z M 320.695312 100.832031 C 320.695312 101.875 320.96875 102.699219 321.527344 103.292969 C 322.078125 103.875 322.78125 104.167969 323.632812 104.167969 C 324.476562 104.167969 325.179688 103.871094 325.734375 103.269531 C 326.289062 102.675781 326.570312 101.824219 326.570312 100.707031 C 326.570312 100.015625 326.449219 99.410156 326.214844 98.894531 C 325.976562 98.371094 325.632812 97.957031 325.171875 97.667969 C 324.714844 97.375 324.203125 97.230469 323.652344 97.230469 C 322.84375 97.230469 322.152344 97.511719 321.570312 98.0625 C 320.984375 98.621094 320.695312 99.542969 320.695312 100.832031 Z M 320.695312 100.832031 "/>
<path style=" stroke:none;fill-rule:nonzero;fill:rgb(0%,0%,0%);fill-opacity:1;" d="M 333.152344 105 L 333.152344 104.082031 C 332.664062 104.792969 332.007812 105.144531 331.171875 105.144531 C 330.808594 105.144531 330.46875 105.074219 330.152344 104.9375 C 329.828125 104.785156 329.589844 104.605469 329.421875 104.394531 C 329.265625 104.1875 329.164062 103.933594 329.109375 103.625 C 329.070312 103.417969 329.046875 103.082031 329.046875 102.625 L 329.046875 98.769531 L 330.089844 98.769531 L 330.089844 102.230469 C 330.089844 102.785156 330.117188 103.15625 330.171875 103.332031 C 330.226562 103.613281 330.359375 103.832031 330.570312 104 C 330.789062 104.15625 331.058594 104.230469 331.382812 104.230469 C 331.699219 104.230469 331.996094 104.15625 332.277344 104 C 332.554688 103.832031 332.746094 103.613281 332.859375 103.332031 C 332.96875 103.058594 333.027344 102.644531 333.027344 102.105469 L 333.027344 98.769531 L 334.089844 98.769531 L 334.089844 105 Z M 333.152344 105 "/>
<path style=" stroke:none;fill-rule:nonzero;fill:rgb(0%,0%,0%);fill-opacity:1;" d="M 338.050781 104.0625 L 338.195312 104.980469 C 337.890625 105.046875 337.625 105.082031 337.40625 105.082031 C 337.015625 105.082031 336.71875 105.019531 336.507812 104.894531 C 336.300781 104.769531 336.144531 104.613281 336.050781 104.417969 C 335.96875 104.222656 335.925781 103.8125 335.925781 103.1875 L 335.925781 99.605469 L 335.15625 99.605469 L 335.15625 98.769531 L 335.925781 98.769531 L 335.925781 97.230469 L 336.988281 96.605469 L 336.988281 98.769531 L 338.050781 98.769531 L 338.050781 99.605469 L 336.988281 99.605469 L 336.988281 103.230469 C 336.988281 103.535156 337 103.730469 337.03125 103.8125 C 337.070312 103.894531 337.132812 103.96875 337.21875 104.019531 C 337.300781 104.078125 337.414062 104.105469 337.570312 104.105469 C 337.695312 104.105469 337.851562 104.09375 338.050781 104.0625 Z M 338.050781 104.0625 "/>
<path style=" stroke:none;fill-rule:nonzero;fill:rgb(0%,0%,0%);fill-opacity:1;" d="M 339.074219 107.375 L 339.074219 98.769531 L 340.03125 98.769531 L 340.03125 99.582031 C 340.25 99.265625 340.5 99.03125 340.78125 98.875 C 341.074219 98.722656 341.425781 98.644531 341.84375 98.644531 C 342.371094 98.644531 342.832031 98.785156 343.238281 99.0625 C 343.640625 99.328125 343.949219 99.707031 344.15625 100.207031 C 344.363281 100.707031 344.46875 101.25 344.46875 101.832031 C 344.46875 102.472656 344.347656 103.050781 344.113281 103.5625 C 343.890625 104.078125 343.5625 104.472656 343.136719 104.75 C 342.703125 105.011719 342.246094 105.144531 341.761719 105.144531 C 341.410156 105.144531 341.097656 105.066406 340.824219 104.917969 C 340.542969 104.765625 340.3125 104.578125 340.136719 104.355469 L 340.136719 107.375 Z M 340.03125 101.917969 C 340.03125 102.722656 340.1875 103.324219 340.511719 103.707031 C 340.84375 104.082031 341.238281 104.269531 341.699219 104.269531 C 342.15625 104.269531 342.550781 104.078125 342.886719 103.6875 C 343.230469 103.285156 343.40625 102.667969 343.40625 101.832031 C 343.40625 101.042969 343.238281 100.453125 342.90625 100.0625 C 342.582031 99.660156 342.199219 99.457031 341.738281 99.457031 C 341.292969 99.457031 340.894531 99.675781 340.550781 100.105469 C 340.203125 100.519531 340.03125 101.125 340.03125 101.917969 Z M 340.03125 101.917969 "/>
<path style=" stroke:none;fill-rule:nonzero;fill:rgb(0%,0%,0%);fill-opacity:1;" d="M 349.824219 105 L 349.824219 104.082031 C 349.335938 104.792969 348.679688 105.144531 347.847656 105.144531 C 347.480469 105.144531 347.144531 105.074219 346.824219 104.9375 C 346.503906 104.785156 346.261719 104.605469 346.097656 104.394531 C 345.941406 104.1875 345.835938 103.933594 345.785156 103.625 C 345.742188 103.417969 345.722656 103.082031 345.722656 102.625 L 345.722656 98.769531 L 346.761719 98.769531 L 346.761719 102.230469 C 346.761719 102.785156 346.789062 103.15625 346.847656 103.332031 C 346.898438 103.613281 347.035156 103.832031 347.242188 104 C 347.460938 104.15625 347.730469 104.230469 348.054688 104.230469 C 348.371094 104.230469 348.667969 104.15625 348.949219 104 C 349.226562 103.832031 349.417969 103.613281 349.535156 103.332031 C 349.644531 103.058594 349.699219 102.644531 349.699219 102.105469 L 349.699219 98.769531 L 350.761719 98.769531 L 350.761719 105 Z M 349.824219 105 "/>
<path style=" stroke:none;fill-rule:nonzero;fill:rgb(0%,0%,0%);fill-opacity:1;" d="M 354.722656 104.0625 L 354.871094 104.980469 C 354.5625 105.046875 354.296875 105.082031 354.078125 105.082031 C 353.6875 105.082031 353.390625 105.019531 353.183594 104.894531 C 352.972656 104.769531 352.816406 104.613281 352.722656 104.417969 C 352.640625 104.222656 352.597656 103.8125 352.597656 103.1875 L 352.597656 99.605469 L 351.828125 99.605469 L 351.828125 98.769531 L 352.597656 98.769531 L 352.597656 97.230469 L 353.660156 96.605469 L 353.660156 98.769531 L 354.722656 98.769531 L 354.722656 99.605469 L 353.660156 99.605469 L 353.660156 103.230469 C 353.660156 103.535156 353.671875 103.730469 353.703125 103.8125 C 353.746094 103.894531 353.808594 103.96875 353.890625 104.019531 C 353.972656 104.078125 354.089844 104.105469 354.246094 104.105469 C 354.371094 104.105469 354.527344 104.09375 354.722656 104.0625 Z M 354.722656 104.0625 "/>
<path style="fill:none;stroke-width:1;stroke-linecap:round;stroke-linejoin:miter;stroke:rgb(0%,0%,0%);stroke-opacity:1;stroke-miterlimit:10;" d="M 308.214844 98.674805 L 284.862305 98.598633 " transform="matrix(1.333333,0,0,1.333333,-124,-92)"/>
<path style="fill:none;stroke-width:1;stroke-linecap:butt;stroke-linejoin:miter;stroke:rgb(0%,0%,0%);stroke-opacity:1;stroke-miterlimit:10;" d="M 280.863281 98.581055 L 284.862305 98.598633 M 284.856445 100.098633 L 280.863281 98.581055 L 284.868164 97.098633 " transform="matrix(1.333333,0,0,1.333333,-124,-92)"/>
<path style="fill:none;stroke-width:1;stroke-linecap:round;stroke-linejoin:miter;stroke:rgb(0%,0%,0%);stroke-opacity:1;stroke-miterlimit:10;" d="M 241.461914 114.199219 L 241.461914 123.600586 " transform="matrix(1.333333,0,0,1.333333,-124,-92)"/>
<path style="fill:none;stroke-width:1;stroke-linecap:butt;stroke-linejoin:miter;stroke:rgb(0%,0%,0%);stroke-opacity:1;stroke-miterlimit:10;" d="M 241.461914 127.602539 L 241.461914 123.600586 M 242.961914 123.600586 L 241.461914 127.602539 L 239.961914 123.600586 " transform="matrix(1.333333,0,0,1.333333,-124,-92)"/>
<path style="fill:none;stroke-width:1;stroke-linecap:round;stroke-linejoin:miter;stroke:rgb(0%,0%,0%);stroke-opacity:1;stroke-miterlimit:10;" d="M 168.667969 145.250977 L 198.061523 145.250977 " transform="matrix(1.333333,0,0,1.333333,-124,-92)"/>
<path style="fill:none;stroke-width:1;stroke-linecap:butt;stroke-linejoin:miter;stroke:rgb(0%,0%,0%);stroke-opacity:1;stroke-miterlimit:10;" d="M 202.063477 145.250977 L 198.061523 145.250977 M 198.061523 143.750977 L 202.063477 145.250977 L 198.061523 146.750977 " transform="matrix(1.333333,0,0,1.333333,-124,-92)"/>
<path style="fill:none;stroke-width:1;stroke-linecap:round;stroke-linejoin:miter;stroke:rgb(0%,0%,0%);stroke-opacity:1;stroke-miterlimit:10;" d="M 278.961914 145.250977 L 302.317383 145.250977 " transform="matrix(1.333333,0,0,1.333333,-124,-92)"/>
<path style="fill:none;stroke-width:1;stroke-linecap:butt;stroke-linejoin:miter;stroke:rgb(0%,0%,0%);stroke-opacity:1;stroke-miterlimit:10;" d="M 306.316406 145.250977 L 302.317383 145.250977 M 302.317383 143.750977 L 306.316406 145.250977 L 302.317383 146.750977 " transform="matrix(1.333333,0,0,1.333333,-124,-92)"/>
</g>
</svg>
